<svg width="41" height="40" viewBox="0 0 41 40" fill="none" xmlns="http://www.w3.org/2000/svg">
<path d="M38.3573 14.1741C37.8295 12.5397 38.0545 10.0864 36.6827 8.19207C35.3 6.28286 32.8952 5.7402 31.5373 4.74707C30.1938 3.76442 28.9438 1.62606 26.6837 0.888559C24.4873 0.17184 22.2414 1.14442 20.5 1.14442C18.7588 1.14442 16.513 0.171606 14.3163 0.888481C12.0566 1.62582 10.8056 3.76465 9.46289 4.74684C8.10648 5.73879 5.69992 6.28293 4.3175 8.19184C2.9468 10.0846 3.16953 12.5436 2.64266 14.174C2.14125 15.7258 0.5 17.5882 0.5 20.0001C0.5 22.4135 2.13938 24.2687 2.64266 25.8261C3.17047 27.4605 2.94547 29.9139 4.31734 31.8082C5.69992 33.7175 8.10461 34.26 9.46266 35.2532C10.806 36.2357 12.0562 38.3743 14.3163 39.1117C16.5112 39.8279 18.7606 38.8558 20.5 38.8558C22.237 38.8558 24.4916 39.8269 26.6837 39.1118C28.9434 38.3744 30.1937 36.2361 31.5371 35.2534C32.8935 34.2614 35.3001 33.7173 36.6825 31.8084C38.0533 29.9156 37.8304 27.4568 38.3573 25.8262C38.8587 24.2743 40.5 22.4119 40.5 20.0001C40.5 17.5869 38.861 15.7322 38.3573 14.1741ZM35.3838 24.8653C34.7686 26.7696 34.9298 28.9007 34.1516 29.9753C33.363 31.0641 31.2913 31.5614 29.6926 32.7308C28.1114 33.8871 27.0032 35.7202 25.7143 36.1407C24.4949 36.5387 22.5077 35.7307 20.5001 35.7307C18.4777 35.7307 16.511 36.5404 15.2858 36.1407C13.997 35.7202 12.8904 33.8884 11.3075 32.7307C9.71828 31.5685 7.63469 31.0609 6.84836 29.9751C6.07273 28.9042 6.22781 26.7582 5.61633 24.8654C5.01695 23.0107 3.625 21.4049 3.625 20.0001C3.625 18.594 5.0157 16.9936 5.61617 15.135C6.23141 13.2307 6.07023 11.0994 6.84836 10.025C7.63648 8.93684 9.70984 8.43786 11.3075 7.26942C12.8937 6.10934 13.9949 4.28067 15.2856 3.8595C16.504 3.462 18.4977 4.26957 20.4999 4.26957C22.5259 4.26957 24.4877 3.45926 25.7142 3.8595C27.0028 4.27997 28.1104 6.11247 29.6926 7.2695C31.2816 8.43176 33.3653 8.93934 34.1516 10.025C34.9274 11.0962 34.7715 13.24 35.3837 15.1348V15.1349C35.983 16.9895 37.375 18.5954 37.375 20.0001C37.375 21.4063 35.9843 23.0066 35.3838 24.8653ZM27.6987 14.9849C28.3089 15.5951 28.3089 16.5844 27.6987 17.1946L19.8779 25.0154C19.2677 25.6256 18.2783 25.6255 17.6681 25.0154L13.3014 20.6486C12.6912 20.0384 12.6911 19.0491 13.3013 18.4389C13.9116 17.8288 14.901 17.8287 15.511 18.4389L18.773 21.7008L25.4888 14.985C26.0991 14.3747 27.0884 14.3747 27.6987 14.9849Z" fill="#161616"/>
</svg>
