<svg width="41" height="40" viewBox="0 0 41 40" fill="none" xmlns="http://www.w3.org/2000/svg">
<path d="M19.3598 1.64062L18.1708 4.35547C17.5553 4.39303 16.9429 4.47054 16.3374 4.5875L14.5185 2.23875L12.558 2.90531L12.5483 5.89359C11.7178 6.32047 10.922 6.83656 10.1702 7.43891L7.39945 6.19141L5.98094 7.70023L7.39937 10.3906C6.94683 11.0358 6.54914 11.7177 6.21047 12.4292L3.16844 12.5122L2.55078 14.4872L5.00687 16.2964C4.8893 17.0292 4.83187 17.7697 4.82859 18.5108L2.10156 19.8926L2.38719 21.9434L5.38039 22.5293C5.55932 23.1558 5.7812 23.7692 6.04445 24.3652L4.07187 26.8141L5.17289 28.5669L8.2393 27.8491C8.43333 28.0775 8.63442 28.2997 8.84226 28.5155C9.27638 28.9646 9.73878 29.3854 10.2266 29.7753L9.63094 32.8466L11.423 33.8818L13.7642 31.8432C14.4341 32.1125 15.1239 32.3296 15.8273 32.4926L16.5915 35.493L18.6544 35.6616L19.8946 32.8319C20.7516 32.7803 21.6059 32.6522 22.4459 32.4461L24.4162 34.7289L26.3375 33.9598L26.2812 32.8026L21.7964 29.4018C20.4908 29.7319 19.1369 29.8202 17.8071 29.6702C15.3263 29.3905 12.9423 28.2702 11.0713 26.3354C6.79492 21.9124 6.91719 14.8768 11.3399 10.6005C13.4821 8.52922 16.2376 7.47844 18.9962 7.44867C21.9329 7.41695 24.8723 8.54211 27.0773 10.8227C30.6659 14.5345 31.1551 20.1184 28.6055 24.3457L31.1032 26.2402C31.4137 25.7533 31.6942 25.2478 31.943 24.7266L34.963 24.6435L35.5806 22.6685L33.1418 20.8716C33.2594 20.1328 33.319 19.3859 33.3199 18.6377L36.0299 17.2608L35.7444 15.21L32.7537 14.6241C32.5021 13.7578 32.1686 12.9174 31.7577 12.1143L33.5397 9.64602L32.3483 7.95406L29.4139 8.80609C29.377 8.76703 29.3412 8.72742 29.3039 8.68891C28.842 8.211 28.3477 7.76557 27.8244 7.35578L28.386 4.45539L26.5937 3.42031L24.3672 5.35891C23.6464 5.06883 22.9061 4.84305 22.1552 4.67531L21.4253 1.80906L19.3598 1.64062ZM14.8164 13.6328C14.0083 13.642 13.2073 13.8405 12.4727 14.2016L16.0055 16.8823C17.0739 17.693 17.377 19.2335 16.557 20.3149C15.7369 21.397 14.162 21.5596 13.0781 20.7374L9.54781 18.0591C9.18633 19.9961 9.87086 22.0484 11.5473 23.3204C13.0509 24.4608 14.9805 24.6743 16.6427 24.0773L17.0161 23.9429L17.3309 24.1822L27.8927 32.195L28.2075 32.4342L28.1806 32.8298C28.0527 34.5915 28.7736 36.393 30.2778 37.5342C31.9544 38.8061 34.1173 38.9116 35.8856 38.042L32.3555 35.3639C31.2716 34.5416 31.0053 32.9806 31.8258 31.8995C32.6461 30.8183 34.2115 30.696 35.2802 31.5064L38.8105 34.1848C39.1712 32.2485 38.4895 30.1952 36.8134 28.9235C35.3046 27.7784 33.3902 27.5515 31.7378 28.1397L31.3667 28.2716L31.0519 28.0323L20.4902 20.0196L20.1753 19.7803L20.2022 19.3873C20.3233 17.6384 19.5889 15.8566 18.0805 14.712C17.1005 13.9685 15.9538 13.6199 14.8165 13.6329L14.8164 13.6328ZM18.2198 20.6836L31.0225 30.398L30.1411 31.5625L17.3359 21.8457L18.2198 20.6836Z" fill="#161616"/>
</svg>
