<svg width="17" height="18" viewBox="0 0 17 18" fill="none" xmlns="http://www.w3.org/2000/svg">
<path d="M1.00004 7.36053C2.91644 11.5344 6.32645 14.8529 10.566 16.6519L11.2456 16.9547C12.8004 17.6475 14.6282 17.1212 15.5765 15.7077L16.4646 14.384C16.7533 13.9536 16.6654 13.3739 16.262 13.0485L13.2502 10.6187C12.8078 10.2618 12.1573 10.345 11.8189 10.8016L10.8871 12.0589C8.49634 10.8795 6.55529 8.93849 5.37595 6.54768L6.6332 5.61596C7.08986 5.27754 7.17298 4.62702 6.81609 4.18464L4.38623 1.1727C4.06088 0.769416 3.48138 0.681449 3.05101 0.970018L1.71817 1.86372C0.295825 2.81742 -0.227556 4.66027 0.481176 6.21922L0.999264 7.35884L1.00004 7.36053Z" fill="#F32F08"/>
</svg>
