<svg width="77" height="77" viewBox="0 0 77 77" fill="none" xmlns="http://www.w3.org/2000/svg">
<rect width="77" height="77" rx="38.5" fill="#F4F5F7"/>
<path d="M34.0082 23.5277C30.0855 23.5277 26.8964 26.7168 26.8964 30.6395C26.8964 34.4874 29.9058 37.6016 33.8286 37.7364C33.9483 37.7214 34.0681 37.7214 34.1579 37.7364H34.2627C36.1034 37.6749 37.848 36.9001 39.1277 35.5757C40.4073 34.2513 41.1218 32.4812 41.12 30.6395C41.12 26.7168 37.9309 23.5277 34.0082 23.5277ZM41.6141 41.7175C37.4369 38.9326 30.6245 38.9326 26.4173 41.7175C24.5158 42.9901 23.4678 44.7119 23.4678 46.5535C23.4678 48.3951 24.5158 50.1019 26.4023 51.3596C28.4984 52.767 31.2533 53.4707 34.0082 53.4707C36.7631 53.4707 39.518 52.767 41.6141 51.3596C43.5006 50.0869 44.5487 48.3801 44.5487 46.5235C44.5337 44.682 43.5006 42.9751 41.6141 41.7175ZM50.4627 31.5199C50.7022 34.4245 48.6361 36.9698 45.7764 37.3141H45.7015C45.6117 37.3141 45.5219 37.3141 45.447 37.3441C43.9947 37.4189 42.6622 36.9548 41.659 36.1014C43.2012 34.7239 44.0845 32.6578 43.9049 30.4119C43.8021 29.2441 43.4055 28.1213 42.752 27.148C43.5365 26.7663 44.4021 26.5812 45.2741 26.6087C46.1461 26.6362 46.9984 26.8754 47.7573 27.3057C48.5163 27.736 49.1591 28.3445 49.6304 29.0787C50.1018 29.8129 50.3874 30.6507 50.4627 31.5199Z" fill="#191919"/>
<path d="M53.4543 45.3723C53.3346 46.8246 52.4063 48.0823 50.8492 48.9357C49.352 49.7591 47.4655 50.1484 45.5939 50.1035C46.6719 49.1303 47.3008 47.9176 47.4205 46.6299C47.5703 44.7734 46.6869 42.9917 44.9202 41.5693C43.917 40.7758 42.7492 40.147 41.4766 39.6828C44.7854 38.7246 48.9477 39.3684 51.508 41.4346C52.8854 42.5425 53.5891 43.9349 53.4543 45.3723Z" fill="#191919"/>
</svg>
