<svg width="134" height="115" viewBox="0 0 134 115" fill="none" xmlns="http://www.w3.org/2000/svg">
<g clip-path="url(#clip0_223_450)">
<path d="M6.93119 66.0573L0.0534539 81.4589L0 81.5789H3.83532L5.19839 78.2888H12.2231L13.5639 81.5256L13.5862 81.5789H17.5106L10.5571 66.0573H6.93119ZM6.41001 75.421L8.72189 69.8499L11.0338 75.421H6.41001Z" fill="black"/>
<path d="M25.6445 66.0573H18.9004V81.5789H22.6288V77.3462H25.64C29.8139 77.3462 32.4064 75.1897 32.4064 71.7128C32.4064 68.2359 29.8139 66.0573 25.64 66.0573H25.6445ZM25.4485 74.2827H22.6333V69.1251H25.4485C27.5332 69.1251 28.6379 70.0188 28.6379 71.7173C28.6379 73.4157 27.5065 74.2872 25.4485 74.2872V74.2827Z" fill="black"/>
<path d="M41.5112 66.0573H34.7671V81.5789H38.4955V77.3462H41.5067C45.6806 77.3462 48.2731 75.1897 48.2731 71.7128C48.2731 68.2359 45.6806 66.0573 41.5067 66.0573H41.5112ZM41.3152 74.2827H38.5V69.1251H41.3152C43.3999 69.1251 44.5046 70.0188 44.5046 71.7173C44.5046 73.4157 43.3732 74.2872 41.3152 74.2872V74.2827Z" fill="black"/>
<path d="M54.3627 66.0573H50.6343V81.5789H62.0779V78.5155H54.3627V66.0573Z" fill="black"/>
<path d="M67.6371 66.0573H63.9087V81.5789H67.6371V66.0573Z" fill="black"/>
<path d="M75.98 66.0573L69.1023 81.4589L69.0488 81.5789H72.8841L74.2472 78.2888H81.272L82.6128 81.5256L82.635 81.5789H86.5594L79.606 66.0573H75.98ZM75.4588 75.421L77.7707 69.8499L80.0826 75.421H75.4633H75.4588Z" fill="black"/>
<path d="M98.538 75.2253L91.0456 66.0884L91.0189 66.0573H87.9497V81.5789H91.6336V72.4109L99.1527 81.5478L99.1795 81.5789H102.226V66.0573H98.538V75.2253Z" fill="black"/>
<path d="M113.349 68.9917C114.85 68.9917 116.128 69.5875 117.153 70.7613L117.211 70.828L119.621 68.6094L119.567 68.5471C118.102 66.7731 115.83 65.7949 113.171 65.7949C108.284 65.7949 104.734 69.1696 104.734 73.8203C104.734 78.4711 108.271 81.8457 113.148 81.8457C115.866 81.8457 118.084 80.8853 119.567 79.0713L119.616 79.009L117.206 76.7904L117.149 76.8571C116.133 78.0442 114.85 78.6489 113.344 78.6489C110.498 78.6489 108.507 76.6659 108.507 73.8203C108.507 70.9748 110.494 68.9917 113.344 68.9917H113.349Z" fill="black"/>
<path d="M125.523 78.56V75.1764H132.664V72.2419H125.523V69.0807H133.608V66.0573H121.812V81.5789H133.893V78.56H125.523Z" fill="black"/>
<path d="M0 114.205H1.14035V110.982H5.14048V110.004H1.14035V107.229H5.63048V106.238H0V114.205Z" fill="#F03100"/>
<path d="M8.70871 106.238H7.56836V114.201H8.70871V106.238Z" fill="#F03100"/>
<path d="M17.5506 106.238H16.3122L14.0983 109.301L11.8666 106.238H10.5659L13.3812 110.119L10.3833 114.205H11.6929L14.0538 110.915L16.4459 114.205H17.7599L14.7353 110.084L17.5506 106.238Z" fill="#F03100"/>
<path d="M23.9695 106.238H22.8291V114.201H23.9695V106.238Z" fill="#F03100"/>
<path d="M25.542 107.229H28.277V114.205H29.404V107.229H32.1391V106.238H25.542V107.229Z" fill="#F03100"/>
<path d="M35.9565 107.229H38.6916V114.205H39.823V107.229H42.5581V106.238H35.9565V107.229Z" fill="#F03100"/>
<path d="M49.8549 109.666H45.2712V106.238H44.1309V114.205H45.2712V110.653H49.8549V114.205H50.9908V106.238H49.8549V109.666Z" fill="#F03100"/>
<path d="M54.8571 110.644H58.8573V109.675H54.8571V107.229H59.3473V106.238H53.7168V114.205H59.5076V113.214H54.8571V110.644Z" fill="#F03100"/>
<path d="M71.5169 109.016C71.5169 107.287 70.2607 106.242 68.1894 106.242H65.0757V114.205H66.216V111.782H68.1894C68.3586 111.782 68.5324 111.769 68.6883 111.76L70.4077 114.205H71.6505L69.7574 111.533C70.8754 111.133 71.5124 110.248 71.5124 109.021L71.5169 109.016ZM68.1537 110.813H66.216V107.229H68.1537C69.6148 107.229 70.3765 107.878 70.3765 109.016C70.3765 110.155 69.6104 110.813 68.1537 110.813Z" fill="#F03100"/>
<path d="M74.8357 106.238H73.6953V114.201H74.8357V106.238Z" fill="#F03100"/>
<path d="M81.2276 107.162C82.1274 107.162 82.8802 107.447 83.5395 108.083L84.2477 107.376C83.5172 106.567 82.4481 106.149 81.1831 106.149C78.7108 106.149 76.9067 107.865 76.9067 110.221C76.9067 112.578 78.7064 114.294 81.1563 114.294C82.2744 114.294 83.3791 113.952 84.1765 113.28V110.172H83.0807V112.765C82.5105 113.129 81.8824 113.276 81.2098 113.276C79.3745 113.276 78.0426 111.969 78.0426 110.217C78.0426 108.465 79.379 107.158 81.2231 107.158L81.2276 107.162Z" fill="#F03100"/>
<path d="M92.4085 109.666H87.8293V106.238H86.689V114.205H87.8293V110.653H92.4085V114.205H93.5489V106.238H92.4085V109.666Z" fill="#F03100"/>
<path d="M95.1211 107.229H97.8562V114.205H98.9876V107.229H101.723V106.238H95.1211V107.229Z" fill="#F03100"/>
<path d="M114.681 112.747L112.48 106.238H111.433L109.184 112.711L107.032 106.238H105.856L108.525 114.205H109.745L111.923 107.843L114.097 114.205H115.296L117.964 106.238H116.881L114.681 112.747Z" fill="#F03100"/>
<path d="M121.839 106.238L118.227 114.201H119.403L120.28 112.209H124.521L125.398 114.201H126.597L122.971 106.238H121.844H121.839ZM120.677 111.302L122.396 107.398L124.115 111.302H120.672H120.677Z" fill="#F03100"/>
<path d="M132.722 106.238L130.156 110.435L127.603 106.238H126.383L129.554 111.426V114.205H130.681V111.449L133.849 106.238H132.722Z" fill="#F03100"/>
<path d="M10.4992 92.2587C10.4992 89.5466 8.48581 87.8615 5.24294 87.8615H0V99.9196H2.9266V96.6071H5.33203L7.63054 99.9196H10.7977L8.09381 96.0514C9.64843 95.3489 10.4992 94.0061 10.4992 92.2632V92.2587ZM5.08703 94.2462H2.9266V90.2713H5.08703C6.69065 90.2713 7.537 90.956 7.537 92.2587C7.537 93.5615 6.66837 94.2462 5.08703 94.2462Z" fill="black"/>
<path d="M15.1989 94.9576H20.7269V92.65H15.1989V90.2357H21.4574V87.8615H12.2856V99.9196H21.6802V97.5408H15.1989V94.9576Z" fill="black"/>
<path d="M28.7273 87.8615H23.4888V99.9196H26.4154V96.6427H28.7273C31.9701 96.6427 33.9836 94.962 33.9836 92.2587C33.9836 89.5555 31.9701 87.8615 28.7273 87.8615ZM28.5758 94.2284H26.4154V90.2713H28.5758C30.1794 90.2713 31.0258 90.956 31.0258 92.2587C31.0258 93.5615 30.1794 94.2284 28.5758 94.2284Z" fill="black"/>
<path d="M38.7273 87.8615L33.3953 99.7995L33.3418 99.9196H36.3575L37.4132 97.3719H42.8299L43.8633 99.8662L43.8856 99.9196H46.9681L41.5648 87.8615H38.7317H38.7273ZM38.3665 95.1132L40.126 90.8715L41.8855 95.1132H38.3665Z" fill="black"/>
<path d="M50.6966 87.8615H47.77V99.9196H50.6966V87.8615Z" fill="black"/>
<path d="M63.6281 92.2587C63.6281 89.5466 61.6147 87.8615 58.3718 87.8615H53.1289V99.9196H56.0555V96.6071H58.4609L60.7594 99.9196H63.9266L61.2227 96.0514C62.7773 95.3489 63.6281 94.0061 63.6281 92.2632V92.2587ZM58.2159 94.2462H56.0555V90.2713H58.2159C59.8196 90.2713 60.6659 90.956 60.6659 92.2587C60.6659 93.5615 59.7973 94.2462 58.2159 94.2462Z" fill="black"/>
<path d="M75.5081 87.8615H70.0112V99.9196H75.5081C79.4859 99.9196 82.1631 97.4964 82.1631 93.8905C82.1631 90.2846 79.4904 87.8615 75.5081 87.8615ZM75.37 97.4919H72.9378V90.2935H75.37C77.7309 90.2935 79.1964 91.6718 79.1964 93.8949C79.1964 96.118 77.7309 97.4964 75.37 97.4964V97.4919Z" fill="black"/>
<path d="M86.7733 87.8615H83.8467V99.9196H86.7733V87.8615Z" fill="black"/>
<path d="M99.7048 92.2587C99.7048 89.5466 97.6914 87.8615 94.4485 87.8615H89.2056V99.9196H92.1322V96.6071H94.5376L96.8361 99.9196H100.003L97.2994 96.0514C98.854 95.3489 99.7048 94.0061 99.7048 92.2632V92.2587ZM94.2926 94.2462H92.1322V90.2713H94.2926C95.8962 90.2713 96.7426 90.956 96.7426 92.2587C96.7426 93.5615 95.8739 94.2462 94.2926 94.2462Z" fill="black"/>
<path d="M104.404 94.9576H109.937V92.65H104.404V90.2357H110.667V87.8615H101.496V99.9196H110.89V97.5408H104.404V94.9576Z" fill="black"/>
<path d="M123.452 87.8614V89.8222L123.429 89.7956C122.289 88.4172 120.525 87.6569 118.463 87.6569C114.667 87.6569 111.91 90.2802 111.91 93.8905C111.91 97.5008 114.659 100.124 118.445 100.124C120.552 100.124 122.276 99.3771 123.429 97.9677L123.478 97.9054L121.585 96.1625L121.527 96.2292C120.743 97.1451 119.759 97.6075 118.596 97.6075C116.4 97.6075 114.872 96.078 114.872 93.8905C114.872 91.703 116.405 90.1735 118.596 90.1735C119.75 90.1735 120.739 90.6314 121.527 91.5385L121.585 91.6052L123.447 89.8889V90.2802H127.26V99.9284H130.187V90.2802H134V87.8659H123.452V87.8614Z" fill="black"/>
<path d="M114.739 0C112.026 0 109.697 1.6451 108.69 3.98825H75.0896V4.01048C63.156 4.44176 53.0889 13.9522 51.7837 25.6635H56.0155C57.3251 15.953 65.9089 8.18102 75.9315 8.18102H108.369C109.091 11.0266 111.67 13.143 114.743 13.143C118.374 13.143 121.327 10.1951 121.327 6.57149C121.327 2.94783 118.374 0 114.743 0L114.739 0ZM114.739 8.95021C113.447 8.95021 112.356 7.86089 112.356 6.57149C112.356 5.28209 113.447 4.19277 114.739 4.19277C116.031 4.19277 117.122 5.28209 117.122 6.57149C117.122 7.86089 116.031 8.95021 114.739 8.95021Z" fill="#F03100"/>
<path d="M102.605 12.9206C99.7094 12.9206 97.2506 14.7969 96.373 17.398L76.4837 17.4158C76.3011 17.4069 76.114 17.398 75.9269 17.398C75.7933 17.398 75.6641 17.4113 75.5305 17.4158H75.3924C70.6216 17.6692 66.5457 21.1506 65.3965 25.659H69.8109C70.782 23.4226 72.9647 21.7819 75.477 21.6041L96.373 21.5863C97.2506 24.1829 99.7094 26.0592 102.605 26.0592C106.235 26.0592 109.189 23.1113 109.189 19.4877C109.189 15.864 106.235 12.9162 102.605 12.9162V12.9206ZM102.605 21.8709C101.313 21.8709 100.222 20.7815 100.222 19.4921C100.222 18.2027 101.313 17.1134 102.605 17.1134C103.897 17.1134 104.988 18.2027 104.988 19.4921C104.988 20.7815 103.897 21.8709 102.605 21.8709Z" fill="#F03100"/>
<path d="M49.4714 43.5372C52.3624 43.5372 54.8168 41.6654 55.6988 39.0777L75.6371 39.0599C75.7351 39.0599 75.8331 39.0688 75.9311 39.0688C80.9825 39.0688 85.3568 35.414 86.4972 30.6654H82.105C81.1072 33.1064 78.684 34.876 75.9311 34.876V34.8671H75.7618C75.7128 34.8671 75.6683 34.8627 75.6193 34.8582V34.8671H67.423C67.423 34.8671 67.423 34.8716 67.4275 34.876L55.7122 34.8849C54.8391 32.2794 52.3758 30.3942 49.4714 30.3942C45.841 30.3942 42.8877 33.3421 42.8877 36.9657C42.8877 40.5894 45.841 43.5372 49.4714 43.5372ZM49.4714 34.587C50.7632 34.587 51.8546 35.6763 51.8546 36.9657C51.8546 38.2551 50.7632 39.3444 49.4714 39.3444C48.1796 39.3444 47.0883 38.2551 47.0883 36.9657C47.0883 35.6763 48.1796 34.587 49.4714 34.587Z" fill="#F03100"/>
<path d="M76.3054 48.2858V48.2947H41.4357C40.5582 45.6981 38.0993 43.8173 35.2039 43.8173C31.5734 43.8173 28.6201 46.7652 28.6201 50.3888C28.6201 54.0125 31.5734 56.9603 35.2039 56.9603C38.0993 56.9603 40.5582 55.084 41.4357 52.483H76.301V52.4741C88.484 52.2785 98.8318 42.5991 100.088 30.6699H95.8562C94.6223 40.3182 86.2033 48.0901 76.301 48.2813L76.3054 48.2858ZM35.2039 52.772C33.9121 52.772 32.8207 51.6827 32.8207 50.3933C32.8207 49.1039 33.9121 48.0146 35.2039 48.0146C36.4957 48.0146 37.587 49.1039 37.587 50.3933C37.587 51.6827 36.4957 52.772 35.2039 52.772Z" fill="#F03100"/>
</g>
<defs>
<clipPath id="clip0_223_450">
<rect width="134" height="114.294" fill="white"/>
</clipPath>
</defs>
</svg>
